<svg xmlns="http://www.w3.org/2000/svg" version="1.1" xmlns:xlink="http://www.w3.org/1999/xlink" xmlns:svgjs="http://svgjs.dev/svgjs" width="2000" height="752" viewBox="0 0 2000 752"><g transform="matrix(1,0,0,1,-1.2121212121212466,-0.7779179492355297)"><svg viewBox="0 0 396 149" data-background-color="#ffffff" preserveAspectRatio="xMidYMid meet" height="752" width="2000" xmlns="http://www.w3.org/2000/svg" xmlns:xlink="http://www.w3.org/1999/xlink"><g id="tight-bounds" transform="matrix(1,0,0,1,0.2400000000000091,0.154135338345867)"><svg viewBox="0 0 395.52 148.69172932330827" height="148.69172932330827" width="395.52"><g><svg viewBox="0 0 395.52 148.69172932330827" height="148.69172932330827" width="395.52"><g><svg viewBox="0 0 395.52 148.69172932330827" height="148.69172932330827" width="395.52"><g id="textblocktransform"><svg viewBox="0 0 395.52 148.69172932330827" height="148.69172932330827" width="395.52" id="textblock"><g><svg viewBox="0 0 395.52 148.69172932330827" height="148.69172932330827" width="395.52"><g transform="matrix(1,0,0,1,0,0)"><svg width="395.52" viewBox="0.63 -32.62 136.37 51.269999999999996" height="148.69172932330827" data-palette-color="#007e6b"><path d="M1.07-6.49L1.07-6.49Q1.07-7.28 0.95-8.67 0.83-10.06 0.73-11.72 0.63-13.38 0.63-15.09 0.63-16.8 0.93-18.21L0.93-18.21Q1.56-21.39 3.56-21.39L3.56-21.39Q4.93-21 5.4-20.41 5.86-19.82 5.86-18.97 5.86-18.12 5.42-16.85L5.42-16.85Q3.81-12.6 3.81-9.18L3.81-9.18Q3.81-8.06 3.96-6.79L3.96-6.79Q4.74-3.52 9.33-3.52L9.33-3.52Q11.72-3.52 13.87-4.35L13.87-4.35Q17.97-5.86 19.43-7.91L19.43-7.91Q19.87-10.16 19.87-11.84 19.87-13.53 19.75-14.84 19.63-16.16 19.46-17.75 19.29-19.34 19.24-21.24L19.24-21.24Q19.87-21.53 20.48-21.53 21.09-21.53 21.75-20.9 22.41-20.26 22.88-18.51 23.34-16.75 23.49-14.38 23.63-12.01 23.66-9.47 23.68-6.93 23.68-4.57 23.68-2.2 23.88-0.49L23.88-0.49Q23.29 0.05 22.75 0.05L22.75 0.05Q20.8 0.05 19.87-3.86L19.87-3.86Q19.24-3.32 17.72-2.54L17.72-2.54Q14.5-0.78 10.11-0.2L10.11-0.2Q9.28-0.1 8.25-0.1 7.23-0.1 5.69-0.49 4.15-0.88 2.78-2.29 1.42-3.71 1.07-6.49ZM26.12-4.27Q26.12-5.18 26.88-5.88 27.63-6.59 28.05-6.86 28.46-7.13 28.61-7.28L28.61-7.28Q28.85-2.83 34.62-2.83L34.62-2.83Q39.16-2.83 45.21-5.66L45.21-5.66Q49.51-7.62 50.97-9.67L50.97-9.67Q51.46-10.3 51.46-10.72 51.46-11.13 51.32-11.38L51.32-11.38 31.05-15.92Q30.17-16.11 29.34-16.75L29.34-16.75Q27.83-17.82 27.83-18.7L27.83-18.7Q27.83-22.07 32.61-24.8L32.61-24.8Q37.89-27.78 46.73-29.3L46.73-29.3Q48.73-29.64 49.7-29.69L49.7-29.69Q50-29.59 50.61-29.52 51.22-29.44 51.85-29.3L51.85-29.3Q53.37-28.96 53.12-28.03L53.12-28.03Q53.12-26.37 46.77-25.39L46.77-25.39Q38.57-24.17 36.55-23.34 34.52-22.51 33.62-21.63 32.71-20.75 32.66-19.53L32.66-19.53Q32.66-19.29 33.79-18.99 34.91-18.7 36.47-18.29 38.03-17.87 40.52-17.19L40.52-17.19Q46.58-15.53 55.37-12.99L55.37-12.99Q55.86-11.91 55.86-10.99L55.86-10.99Q55.86-8.4 52.83-6.01L52.83-6.01Q49.41-3.32 43.36-1.46L43.36-1.46Q38.33 0.05 35.35 0.05L35.35 0.05Q32.86 0.05 30.61-0.83 28.37-1.71 27.24-2.54 26.12-3.37 26.12-4.27ZM81.78-0.68L81.78-0.68Q81.34 0.15 79.51 0.15 77.68 0.15 77.68-1.17L77.68-1.17Q77.68-6.93 77.44-9.08L77.44-9.08Q77-13.82 75.58-14.16L75.58-14.16Q72.07-14.84 69.84-14.84 67.62-14.84 66.18-13.5 64.74-12.16 63.98-9.06 63.23-5.96 62.89-0.34L62.89-0.34 59.13-0.34Q59.22-3.13 59.22-5.52 59.22-7.91 59.13-11.21 59.03-14.5 58.88-18.41L58.88-18.41Q58.64-22.9 58.64-26 58.64-29.1 59.03-31.69L59.03-31.69Q59.52-32.62 60.44-32.62L60.44-32.62Q61.57-32.62 62.2-31.81 62.84-31.01 62.89-30.37L62.89-30.37 62.64-22.31Q62.64-17.77 63.08-15.53L63.08-15.53Q67.48-18.46 72.16-18.46L72.16-18.46Q73.68-18.46 75.39-18.21L75.39-18.21Q79.05-16.31 80.17-14.16L80.17-14.16Q80.71-13.04 80.85-11.77 81-10.5 81.05-8.89L81.05-8.89Q81.34-3.32 81.78-0.68ZM84.81-9.28L84.81-9.28Q84.81-15.04 89.79-18.55L89.79-18.55Q93.74-21.34 99.31-21.92L99.31-21.92Q99.6-21.92 100.68-21.92 101.75-21.92 103.56-21.29L103.56-21.29Q107.56-19.92 109.03-16.46L109.03-16.46Q109.61-15.09 109.61-14.14 109.61-13.18 109.56-12.79L109.56-12.79Q109.56-6.69 104.92-3.17L104.92-3.17Q100.63 0.05 94.18 0.05L94.18 0.05Q89.54 0.05 87.18-2.1 84.81-4.25 84.81-9.28ZM88.18-8.11L88.18-8.11Q88.18-5.08 89.79-4L89.79-4Q91.01-3.22 93.89-3.22 96.77-3.22 98.97-3.66 101.16-4.1 102.87-5.18L102.87-5.18Q106.54-7.52 106.54-12.45L106.54-12.45Q106.54-15.38 104.97-17.24L104.97-17.24Q103.26-19.24 100.48-19.24L100.48-19.24Q98.58-18.9 96.65-18.51 94.72-18.12 93.01-16.99L93.01-16.99Q89.3-14.6 88.18-8.11ZM116.4-19.58L116.4-19.58Q123.04-21.88 127.87-21.88L127.87-21.88Q134.02-21.88 136.07-18.65L136.07-18.65Q137-17.14 137-15.38L137-15.38Q137-12.94 135.46-10.35 133.93-7.76 131.39-5.66L131.39-5.66Q125.48-0.83 117.03 0.34L117.03 0.34Q117.03 0.88 117.06 2.08 117.08 3.27 117.1 4.74 117.13 6.2 117.15 7.86 117.18 9.52 117.23 11.04L117.23 11.04Q117.37 14.79 117.45 15.33 117.52 15.87 117.52 16.21L117.52 16.21Q117.52 17.43 116.74 18.04 115.96 18.65 114.69 18.65L114.69 18.65Q114.44 18.65 114.2 18.65L114.2 18.65 113.42-20.61Q113.86-21.24 114.59-21.19 115.32-21.14 115.76-20.8 116.2-20.46 116.4-19.58ZM130.65-17.87L130.65-17.87Q129.04-18.7 127.21-18.7 125.38-18.7 123.57-18.36L123.57-18.36Q119.47-17.58 117.52-14.89L117.52-14.89Q116.64-13.62 116.64-11.77L116.64-11.77Q116.64-11.57 116.64-11.38L116.64-11.38 116.64-2.93Q126.7-5.18 130.9-9.18L130.9-9.18Q133.34-11.47 133.34-13.92L133.34-13.92Q133.34-16.5 130.65-17.87Z" opacity="1" transform="matrix(1,0,0,1,0,0)" fill="#007e6b" class="wordmark-text-0" data-fill-palette-color="primary" id="text-0"></path></svg></g></svg></g></svg></g></svg></g><g></g></svg></g><defs></defs></svg><rect width="395.52" height="148.69172932330827" fill="none" stroke="none" visibility="hidden"></rect></g></svg></g></svg>